HIERARCHY
ROOT butt
{
	OFFSET 0.000000 0.000000 0.000000
	CHANNELS 6 Xposition Yposition Zposition Xrotation Yrotation Zrotation
	JOINT lhip
	{
		OFFSET 0.583813 0.718669 -0.323938
		CHANNELS 6 Xposition Yposition Zposition Xrotation Yrotation Zrotation
		JOINT lknee
		{
			OFFSET 0.553245 0.216339 -1.020714
			CHANNELS 6 Xposition Yposition Zposition Xrotation Yrotation Zrotation
			JOINT lankle
			{
				OFFSET -0.339279 0.080945 -1.465530
				CHANNELS 6 Xposition Yposition Zposition Xrotation Yrotation Zrotation
				End Site
				{
					OFFSET 0.537810 -0.043777 -0.195635
				}
			}
		}
	}
	JOINT rhip
	{
		OFFSET 0.339136 -0.940503 -0.149914
		CHANNELS 6 Xposition Yposition Zposition Xrotation Yrotation Zrotation
		JOINT rknee
		{
			OFFSET 0.601234 -0.223249 -1.073499
			CHANNELS 6 Xposition Yposition Zposition Xrotation Yrotation Zrotation
			JOINT rankle
			{
				OFFSET -0.245263 -0.041399 -1.532960
				CHANNELS 6 Xposition Yposition Zposition Xrotation Yrotation Zrotation
				End Site
				{
					OFFSET 0.653910 0.024899 -0.232875
				}
			}
		}
	}
	JOINT abdomen
	{
		OFFSET 0.907647 0.026340 0.317664
		CHANNELS 6 Xposition Yposition Zposition Xrotation Yrotation Zrotation
		JOINT neck
		{
			OFFSET 1.496963 0.039292 -0.038456
			CHANNELS 6 Xposition Yposition Zposition Xrotation Yrotation Zrotation
			End Site
			{
				OFFSET 2.739308 -0.092250 1.009232
			}
		}
		JOINT lshldr
		{
			OFFSET 1.132326 0.559775 -0.444207
			CHANNELS 6 Xposition Yposition Zposition Xrotation Yrotation Zrotation
			JOINT lelbow
			{
				OFFSET -0.149559 0.286290 -0.912030
				CHANNELS 6 Xposition Yposition Zposition Xrotation Yrotation Zrotation
				JOINT lwrist
				{
					OFFSET 0.485181 -0.390159 0.265472
					CHANNELS 6 Xposition Yposition Zposition Xrotation Yrotation Zrotation
					End Site
					{
						OFFSET 0.527290 -0.521758 -0.124363
					}
				}
			}
		}
		JOINT rshldr
		{
			OFFSET 1.100885 -0.503887 -0.296241
			CHANNELS 6 Xposition Yposition Zposition Xrotation Yrotation Zrotation
			JOINT relbow
			{
				OFFSET -0.198937 -0.642069 -0.689888
				CHANNELS 6 Xposition Yposition Zposition Xrotation Yrotation Zrotation
				JOINT rwrist
				{
					OFFSET 0.636091 0.394674 0.001069
					CHANNELS 6 Xposition Yposition Zposition Xrotation Yrotation Zrotation
					End Site
					{
						OFFSET 0.557086 0.133476 -0.377524
					}
				}
			}
		}
	}
}
MOTION
Frames: 6
Frame Time: 0.033333
0.000000 0.000000 0.000000 -6.278597 -7.350344 -10.404839 0.583813 0.718669 -0.323938 -6.224586 -1.298319 -50.012721 0.553245 0.216339 -1.020714 -5.097761 14.604270 47.166602 -0.339279 0.080945 -1.465530 -8.383569 -4.521126 1.167003 0.339136 -0.940503 -0.149914 -9.435862 3.288739 -50.679590 0.601234 -0.223249 -1.073499 -5.014672 7.415465 36.410185 -0.245263 -0.041399 -1.532960 4.863710 -6.253855 -0.471875 0.907647 0.026340 0.317664 -1.317545 18.254167 23.639032 1.496964 0.039292 -0.038456 -8.234455 18.190380 -16.398152 1.132326 0.559775 -0.444207 -60.355103 42.630318 -14.086350 -0.149559 0.286290 -0.912030 -2.705503 -7.871679 7.180762 0.485181 -0.390159 0.265472 -4.535138 4.678896 -36.167788 1.100885 -0.503887 -0.296241 71.696530 -25.970355 32.092562 -0.198937 -0.642069 -0.689888 5.366308 2.356319 16.734325 0.636091 0.394674 0.001069 50.600589 -27.416688 112.631978 
0.000000 -0.008130 0.000940 -6.138120 -6.609347 -10.830219 0.583813 0.718669 -0.323938 -4.672876 -3.846450 -42.734492 0.553245 0.216339 -1.020714 -6.369285 15.671715 40.479263 -0.339279 0.080945 -1.465530 -8.003893 -4.838166 1.062061 0.339136 -0.940503 -0.149914 -9.541564 2.033939 -51.890836 0.601234 -0.223249 -1.073499 -5.441774 7.575709 38.128606 -0.245263 -0.041399 -1.532960 4.921169 -5.741820 -0.532390 0.907647 0.026340 0.317664 -1.245258 17.761350 24.078075 1.496964 0.039292 -0.038456 -8.178629 17.825040 -16.294383 1.132326 0.559775 -0.444207 -60.367985 42.166511 -14.068198 -0.149559 0.286290 -0.912030 -2.602954 -7.541027 6.990603 0.485181 -0.390159 0.265472 -4.463712 4.652406 -36.259705 1.100885 -0.503887 -0.296241 71.726371 -26.087834 32.216653 -0.198937 -0.642069 -0.689888 5.354650 2.444483 16.891497 0.636091 0.394673 0.001069 50.692141 -27.526834 112.660070 
-0.000000 -0.024670 0.001990 -5.897013 -4.994506 -11.795565 0.583813 0.718669 -0.323938 -2.066468 -8.546884 -32.450379 0.553245 0.216339 -1.020714 -8.874215 18.658950 31.653426 -0.339279 0.080945 -1.465530 -7.250387 -5.301954 0.881616 0.339136 -0.940503 -0.149914 -9.683420 -0.647230 -54.582958 0.601234 -0.223249 -1.073499 -6.488967 7.971910 41.874134 -0.245263 -0.041399 -1.532960 4.634165 -5.083544 -0.565689 0.907647 0.026340 0.317664 -1.081936 16.850708 25.013049 1.496963 0.039292 -0.038456 -7.984898 16.809796 -15.942666 1.132326 0.559775 -0.444207 -60.379432 40.865012 -14.062803 -0.149559 0.286290 -0.912030 -2.306224 -6.610116 6.477221 0.485181 -0.390159 0.265472 -4.306304 4.584378 -36.367650 1.100885 -0.503887 -0.296241 71.959970 -26.426553 32.680150 -0.198937 -0.642069 -0.689888 5.363092 2.605261 17.234488 0.636091 0.394674 0.001069 50.800123 -27.667814 112.681872 
-0.000000 -0.047810 0.001140 -5.882360 -3.238403 -12.487037 0.583813 0.718669 -0.323938 0.579907 -14.383268 -24.984108 0.553245 0.216339 -1.020714 -12.375886 23.954990 25.699773 -0.339279 0.080945 -1.465530 -6.318425 -5.443873 0.740767 0.339136 -0.940503 -0.149914 -9.541046 -3.908782 -57.456091 0.601234 -0.223249 -1.073499 -8.064964 8.571146 45.825959 -0.245263 -0.041399 -1.532960 4.270928 -4.553691 -0.560879 0.907647 0.026340 0.317664 -0.868780 16.748201 25.564524 1.496964 0.039292 -0.038456 -7.661565 14.733807 -15.117811 1.132326 0.559775 -0.444207 -60.275969 38.258154 -14.159860 -0.149559 0.286290 -0.912030 -1.730907 -4.895521 5.411458 0.485181 -0.390159 0.265472 -4.127082 4.509545 -36.448775 1.100885 -0.503887 -0.296241 72.285545 -26.905970 33.666696 -0.198937 -0.642069 -0.689888 5.543636 2.729520 17.887617 0.636091 0.394673 0.001069 50.770722 -27.852637 112.690137 
-0.000000 -0.076730 -0.004550 -5.756650 -1.355865 -13.290355 0.583813 0.718669 -0.323938 2.667708 -20.763889 -20.955688 0.553245 0.216339 -1.020714 -16.262595 29.891954 22.938736 -0.339279 0.080945 -1.465530 -5.619657 -5.042601 0.697738 0.339136 -0.940503 -0.149914 -9.486588 -7.869558 -60.143299 0.601234 -0.223249 -1.073499 -10.005415 9.291587 49.712763 -0.245263 -0.041399 -1.532960 3.634928 -4.149173 -0.499766 0.907647 0.026340 0.317664 -1.175373 17.287380 26.104677 1.496964 0.039292 -0.038456 -7.125741 11.780953 -15.268922 1.132326 0.559775 -0.444207 -59.735223 34.635329 -14.408188 -0.149559 0.286290 -0.912030 -0.956520 -2.657648 3.555962 0.485181 -0.390159 0.265472 -3.966016 4.429736 -36.496740 1.100885 -0.503887 -0.296241 72.661198 -27.340508 35.269150 -0.198937 -0.642069 -0.689888 5.865001 2.835115 18.817023 0.636091 0.394674 0.001069 50.847968 -28.155368 112.933886 
-0.000000 -0.104260 -0.017560 -4.713914 0.550741 -13.564036 0.583813 0.718669 -0.323938 2.107617 -27.259632 -21.425113 0.553245 0.216339 -1.020714 -19.723945 34.888903 22.863003 -0.339279 0.080945 -1.465530 -6.910218 -4.133964 1.000818 0.339136 -0.940503 -0.149914 -10.590261 -12.606437 -64.089147 0.601234 -0.223249 -1.073499 -12.393503 10.165068 54.109985 -0.245263 -0.041399 -1.532960 2.678451 -3.685681 -0.376488 0.907647 0.026340 0.317664 -2.520707 17.863544 25.726816 1.496964 0.039292 -0.038456 -6.425754 8.383425 -15.990981 1.132326 0.559775 -0.444207 -58.757700 30.054448 -14.376254 -0.149559 0.286290 -0.912030 -0.083393 -0.319807 0.807017 0.485181 -0.390159 0.265472 -3.614223 4.229486 -36.270354 1.100885 -0.503887 -0.296241 72.862129 -27.364465 37.388828 -0.198937 -0.642069 -0.689888 6.487239 2.709130 19.876271 0.636091 0.394674 0.001069 50.836753 -28.610413 113.258484 
